<svg width="35" height="35" viewBox="0 0 35 35" fill="none" xmlns="http://www.w3.org/2000/svg">
<path fill-rule="evenodd" clip-rule="evenodd" d="M17.5 4.375C13.9353 4.375 13.489 4.38988 12.089 4.45375C10.6916 4.51763 9.737 4.73987 8.90225 5.0645C8.02725 5.3935 7.23362 5.90975 6.57737 6.57825C5.90994 7.23374 5.39338 8.02681 5.06362 8.90225C4.74075 9.737 4.51763 10.6925 4.45375 12.0899C4.39075 13.489 4.375 13.9344 4.375 17.5C4.375 21.0656 4.38988 21.511 4.45375 22.911C4.51763 24.3084 4.73987 25.263 5.0645 26.0977C5.3935 26.9727 5.90975 27.7664 6.57825 28.4226C7.23376 29.09 8.02682 29.6066 8.90225 29.9364C9.737 30.2601 10.6916 30.4824 12.089 30.5462C13.489 30.6101 13.9353 30.625 17.5 30.625C21.0648 30.625 21.511 30.6101 22.911 30.5462C24.3084 30.4824 25.263 30.2601 26.0977 29.9355C26.9727 29.6065 27.7664 29.0903 28.4226 28.4218C29.0901 27.7663 29.6066 26.9732 29.9364 26.0977C30.2601 25.263 30.4824 24.3084 30.5462 22.911C30.6101 21.511 30.625 21.0648 30.625 17.5C30.625 13.9353 30.6101 13.489 30.5462 12.089C30.4824 10.6916 30.2601 9.737 29.9355 8.90225C29.606 8.02643 29.0894 7.23303 28.4218 6.57737C27.7663 5.90994 26.9732 5.39338 26.0977 5.06362C25.263 4.74075 24.3075 4.51763 22.9101 4.45375C21.511 4.39075 21.0656 4.375 17.5 4.375ZM17.5 6.74013C21.0044 6.74013 21.42 6.75325 22.8043 6.81625C24.0835 6.87488 24.7782 7.0875 25.2411 7.26863C25.8536 7.50575 26.2911 7.791 26.7505 8.2495C27.2099 8.70888 27.4943 9.14637 27.7314 9.75887C27.9116 10.2217 28.1251 10.9165 28.1838 12.1957C28.2467 13.58 28.2599 13.9956 28.2599 17.5C28.2599 21.0044 28.2467 21.42 28.1838 22.8043C28.1251 24.0835 27.9125 24.7782 27.7314 25.2411C27.5213 25.8112 27.1861 26.327 26.7505 26.7505C26.3271 27.1862 25.8113 27.5214 25.2411 27.7314C24.7782 27.9116 24.0835 28.1251 22.8043 28.1838C21.42 28.2467 21.0053 28.2599 17.5 28.2599C13.9948 28.2599 13.58 28.2467 12.1957 28.1838C10.9165 28.1251 10.2217 27.9125 9.75887 27.7314C9.18877 27.5213 8.67301 27.1861 8.2495 26.7505C7.8139 26.327 7.47874 25.8112 7.26863 25.2411C7.08837 24.7782 6.87488 24.0835 6.81625 22.8043C6.75325 21.42 6.74013 21.0044 6.74013 17.5C6.74013 13.9956 6.75325 13.58 6.81625 12.1957C6.87488 10.9165 7.0875 10.2217 7.26863 9.75887C7.50575 9.14637 7.791 8.70888 8.2495 8.2495C8.67295 7.81379 9.18873 7.4786 9.75887 7.26863C10.2217 7.08837 10.9165 6.87488 12.1957 6.81625C13.58 6.75325 13.9956 6.74013 17.5 6.74013Z" fill="black"/>
<path fill-rule="evenodd" clip-rule="evenodd" d="M17.5 21.8794C16.9249 21.8794 16.3554 21.7661 15.8241 21.546C15.2928 21.3259 14.81 21.0033 14.4033 20.5967C13.9967 20.19 13.6741 19.7072 13.454 19.1759C13.2339 18.6446 13.1207 18.0751 13.1207 17.5C13.1207 16.9249 13.2339 16.3554 13.454 15.8241C13.6741 15.2928 13.9967 14.81 14.4033 14.4033C14.81 13.9966 15.2928 13.6741 15.8241 13.454C16.3554 13.2339 16.9249 13.1206 17.5 13.1206C18.6615 13.1206 19.7754 13.582 20.5967 14.4033C21.418 15.2246 21.8794 16.3385 21.8794 17.5C21.8794 18.6615 21.418 19.7754 20.5967 20.5967C19.7754 21.418 18.6615 21.8794 17.5 21.8794ZM17.5 10.7537C15.7108 10.7537 13.9949 11.4645 12.7297 12.7297C11.4645 13.9948 10.7538 15.7108 10.7538 17.5C10.7538 19.2892 11.4645 21.0052 12.7297 22.2703C13.9949 23.5355 15.7108 24.2462 17.5 24.2462C19.2892 24.2462 21.0052 23.5355 22.2703 22.2703C23.5355 21.0052 24.2463 19.2892 24.2463 17.5C24.2463 15.7108 23.5355 13.9948 22.2703 12.7297C21.0052 11.4645 19.2892 10.7537 17.5 10.7537ZM26.2089 10.6312C26.2089 11.0542 26.0409 11.4598 25.7418 11.7589C25.4428 12.0579 25.0372 12.2259 24.6142 12.2259C24.1913 12.2259 23.7857 12.0579 23.4866 11.7589C23.1875 11.4598 23.0195 11.0542 23.0195 10.6312C23.0195 10.2083 23.1875 9.8027 23.4866 9.50363C23.7857 9.20457 24.1913 9.03656 24.6142 9.03656C25.0372 9.03656 25.4428 9.20457 25.7418 9.50363C26.0409 9.8027 26.2089 10.2083 26.2089 10.6312Z" fill="black"/>
</svg>
