<svg width="30" height="30" viewBox="0 0 30 30" fill="none" xmlns="http://www.w3.org/2000/svg">
<path fill-rule="evenodd" clip-rule="evenodd" d="M29.1667 15C29.1667 22.824 22.8241 29.1666 15 29.1666C7.17601 29.1666 0.833374 22.824 0.833374 15C0.833374 7.17595 7.17601 0.833313 15 0.833313C22.8241 0.833313 29.1667 7.17595 29.1667 15ZM15.5077 11.2918C14.1298 11.8649 11.3759 13.0511 7.246 14.8505C6.57537 15.1171 6.22407 15.378 6.19209 15.6331C6.13804 16.0643 6.67794 16.234 7.41314 16.4652C7.51315 16.4967 7.61677 16.5292 7.723 16.5638C8.44632 16.7989 9.41932 17.074 9.92515 17.0849C10.384 17.0948 10.8961 16.9057 11.4615 16.5174C15.3201 13.9127 17.312 12.5962 17.437 12.5678C17.5253 12.5478 17.6475 12.5226 17.7304 12.5962C17.8132 12.6698 17.8051 12.8093 17.7963 12.8467C17.7428 13.0747 15.6235 15.045 14.5268 16.0646C14.1849 16.3825 13.9423 16.6079 13.8927 16.6594C13.7817 16.7748 13.6685 16.8839 13.5597 16.9888C12.8877 17.6366 12.3838 18.1224 13.5876 18.9157C14.1661 19.2969 14.629 19.6121 15.0908 19.9266C15.5952 20.2701 16.0983 20.6127 16.7491 21.0393C16.915 21.148 17.0733 21.2609 17.2276 21.3709C17.8145 21.7894 18.3419 22.1653 18.9933 22.1053C19.3719 22.0705 19.7629 21.7145 19.9615 20.6529C20.4308 18.144 21.3533 12.7079 21.5665 10.4678C21.5852 10.2716 21.5617 10.0204 21.5428 9.91012C21.524 9.79986 21.4845 9.64276 21.3412 9.52646C21.1715 9.38874 20.9094 9.35969 20.7922 9.36176C20.2594 9.37114 19.4419 9.6554 15.5077 11.2918Z" fill="black"/>
</svg>
