<svg width="3" height="17" viewBox="0 0 3 17" fill="none" xmlns="http://www.w3.org/2000/svg">
<path d="M1.5 2.25C1.08579 2.25 0.750001 1.91421 0.750001 1.5C0.750001 1.08579 1.08579 0.75 1.5 0.75C1.91421 0.75 2.25 1.08579 2.25 1.5C2.25 1.91421 1.91421 2.25 1.5 2.25ZM1.5 9C1.08579 9 0.75 8.66421 0.75 8.25C0.75 7.83579 1.08579 7.5 1.5 7.5C1.91421 7.5 2.25 7.83579 2.25 8.25C2.25 8.66421 1.91421 9 1.5 9ZM1.5 15.75C1.08579 15.75 0.75 15.4142 0.75 15C0.75 14.5858 1.08579 14.25 1.5 14.25C1.91421 14.25 2.25 14.5858 2.25 15C2.25 15.4142 1.91421 15.75 1.5 15.75Z" stroke="black" stroke-width="1.5" stroke-linejoin="round"/>
</svg>
