<svg width="23" height="26" viewBox="0 0 23 26" fill="none" xmlns="http://www.w3.org/2000/svg">
<path d="M19.5647 5.21162C18.144 4.29846 17.1186 2.8374 16.7987 1.1342C16.7296 0.766214 16.6916 0.387493 16.6916 0H12.1573L12.1501 17.9139C12.0739 19.92 10.399 21.5301 8.34583 21.5301C7.70769 21.5301 7.10681 21.3728 6.57776 21.0983C5.36456 20.469 4.5343 19.2153 4.5343 17.7727C4.5343 15.7008 6.24423 14.0151 8.34583 14.0151C8.73814 14.0151 9.11448 14.0789 9.47047 14.1888V9.62551C9.10206 9.57607 8.72775 9.54515 8.34583 9.54515C3.74384 9.54515 0 13.236 0 17.7727C0 20.5561 1.4107 23.0194 3.56289 24.5089C4.91851 25.4471 6.56746 26 8.34583 26C12.9478 26 16.6916 22.3093 16.6916 17.7727V8.68878C18.4701 9.9471 20.6489 10.6886 23 10.6886V6.21867C21.7335 6.21867 20.5539 5.84751 19.5647 5.21162Z" fill="black"/>
</svg>
