<svg width="20" height="22" viewBox="0 0 20 22" fill="none" xmlns="http://www.w3.org/2000/svg">
<path d="M2.88715 13.6011H13.9197L15.3714 5.61694H1.72583C1.29033 5.61694 1 6.05244 1 6.48794L2.16132 13.0204C2.30649 13.3107 2.59682 13.6011 2.88715 13.6011Z" stroke="#FFF9EF" stroke-width="2" stroke-miterlimit="10" stroke-linecap="round" stroke-linejoin="round"/>
<path d="M15.3708 5.61791L15.9515 2.56943C15.9515 2.2791 16.387 1.98877 16.6773 1.98877H19" stroke="#FFF9EF" stroke-width="2" stroke-miterlimit="10" stroke-linecap="round" stroke-linejoin="round"/>
<path d="M13.9172 13.5999L13.3365 16.6483C13.3365 16.9387 12.901 17.229 12.6107 17.229H4.48143" stroke="#FFF9EF" stroke-width="2" stroke-miterlimit="10" stroke-linecap="round" stroke-linejoin="round"/>
<path d="M5.20726 20.8599C5.60812 20.8599 5.93309 20.5349 5.93309 20.134C5.93309 19.7332 5.60812 19.4082 5.20726 19.4082C4.80639 19.4082 4.48143 19.7332 4.48143 20.134C4.48143 20.5349 4.80639 20.8599 5.20726 20.8599Z" stroke="#FFF9EF" stroke-width="2" stroke-miterlimit="10" stroke-linecap="round" stroke-linejoin="round"/>
<path d="M11.7425 20.8599C12.1433 20.8599 12.4683 20.5349 12.4683 20.134C12.4683 19.7332 12.1433 19.4082 11.7425 19.4082C11.3416 19.4082 11.0166 19.7332 11.0166 20.134C11.0166 20.5349 11.3416 20.8599 11.7425 20.8599Z" stroke="#FFF9EF" stroke-width="2" stroke-miterlimit="10" stroke-linecap="round" stroke-linejoin="round"/>
</svg>
