<svg width="20" height="21" viewBox="0 0 20 21" fill="none" xmlns="http://www.w3.org/2000/svg">
<path d="M2.88715 12.6123H13.9197L15.3714 4.62817H1.72583C1.29033 4.62817 1 5.06367 1 5.49917L2.16132 12.0316C2.30649 12.322 2.59682 12.6123 2.88715 12.6123Z" stroke="#FFF9EF" stroke-width="1.5" stroke-miterlimit="10" stroke-linecap="round" stroke-linejoin="round"/>
<path d="M15.3708 4.62914L15.9515 1.58066C15.9515 1.29033 16.387 1 16.6773 1H19" stroke="#FFF9EF" stroke-width="1.5" stroke-miterlimit="10" stroke-linecap="round" stroke-linejoin="round"/>
<path d="M13.9172 12.6111L13.3365 15.6596C13.3365 15.9499 12.901 16.2402 12.6107 16.2402H4.48145" stroke="#FFF9EF" stroke-width="1.5" stroke-miterlimit="10" stroke-linecap="round" stroke-linejoin="round"/>
<path d="M5.20727 19.871C5.60814 19.871 5.9331 19.546 5.9331 19.1451C5.9331 18.7443 5.60814 18.4193 5.20727 18.4193C4.80641 18.4193 4.48145 18.7443 4.48145 19.1451C4.48145 19.546 4.80641 19.871 5.20727 19.871Z" stroke="#FFF9EF" stroke-width="1.5" stroke-miterlimit="10" stroke-linecap="round" stroke-linejoin="round"/>
<path d="M11.7424 19.871C12.1433 19.871 12.4683 19.546 12.4683 19.1451C12.4683 18.7443 12.1433 18.4193 11.7424 18.4193C11.3416 18.4193 11.0166 18.7443 11.0166 19.1451C11.0166 19.546 11.3416 19.871 11.7424 19.871Z" stroke="#FFF9EF" stroke-width="1.5" stroke-miterlimit="10" stroke-linecap="round" stroke-linejoin="round"/>
</svg>
