<svg width="64" height="71" viewBox="0 0 64 71" fill="none" xmlns="http://www.w3.org/2000/svg">
<path fill-rule="evenodd" clip-rule="evenodd" d="M20.4452 9.15901C26.935 6.64606 34.0671 6.31729 40.7606 8.22254C47.4541 10.1278 53.344 14.1632 57.5376 19.7171C61.7313 25.271 64 32.0407 64 39H58C58 33.3455 56.1567 27.8452 52.7493 23.3326C49.342 18.8201 44.5564 15.5413 39.118 13.9933C33.6795 12.4453 27.8847 12.7124 22.6117 14.7542C17.3387 16.796 12.8751 20.5011 9.89736 25.308C6.91962 30.1149 5.59009 35.7615 6.1103 41.392C6.6305 47.0225 8.97207 52.3299 12.7801 56.5098C16.5881 60.6898 21.655 63.5144 27.2128 64.5555C32.7706 65.5966 38.5164 64.7975 43.5791 62.2793L46.2512 67.6514C40.0201 70.7508 32.9485 71.7343 26.1081 70.4529C19.2677 69.1715 13.0315 65.6951 8.34474 60.5506C3.65792 55.406 0.775991 48.8738 0.135742 41.944C-0.504508 35.0141 1.13183 28.0644 4.79674 22.1483C8.46165 16.2321 13.9553 11.672 20.4452 9.15901Z" fill="black"/>
<circle cx="24" cy="13" r="13" fill="black"/>
</svg>
