<svg width="34" height="34" viewBox="0 0 34 34" fill="none" xmlns="http://www.w3.org/2000/svg">
<g clip-path="url(#clip0_42_5938)">
<path d="M17 21.8572C20.0178 21.8572 22.4643 19.4107 22.4643 16.3929C22.4643 13.375 20.0178 10.9286 17 10.9286C13.9821 10.9286 11.5357 13.375 11.5357 16.3929C11.5357 19.4107 13.9821 21.8572 17 21.8572Z" stroke="#FFF9EF" stroke-width="2" stroke-linecap="round" stroke-linejoin="round"/>
<path d="M26.7143 32.7857C25.7949 31.0018 24.4021 29.5056 22.6885 28.461C20.975 27.4164 19.0068 26.8638 17 26.8638C14.9931 26.8638 13.025 27.4164 11.3115 28.461C9.59792 29.5056 8.20509 31.0018 7.28571 32.7857" stroke="#FFF9EF" stroke-width="2" stroke-linecap="round" stroke-linejoin="round"/>
<path d="M29.1428 25.6457C30.8662 23.3979 31.9263 20.7126 32.2031 17.8936C32.4798 15.0747 31.9623 12.2345 30.709 9.69441C29.4557 7.15427 27.5167 5.0155 25.1111 3.51999C22.7056 2.02448 19.9296 1.2319 17.0971 1.2319C14.2646 1.2319 11.4886 2.02448 9.08312 3.51999C6.6776 5.0155 4.73854 7.15427 3.48524 9.69441C2.23194 12.2345 1.71442 15.0747 1.99119 17.8936C2.26797 20.7126 3.32801 23.3979 5.05141 25.6457" stroke="#FFF9EF" stroke-width="2" stroke-linecap="round" stroke-linejoin="round"/>
</g>
<defs>
<clipPath id="clip0_42_5938">
<rect width="34" height="34" fill="white"/>
</clipPath>
</defs>
</svg>
