<svg width="24" height="24" viewBox="0 0 24 24" fill="none" xmlns="http://www.w3.org/2000/svg">
<circle cx="11.5106" cy="11.5106" r="11.5106" fill="#1C244B"/>
<g clip-path="url(#clip0_61_1221)">
<path d="M11.5106 13.3605C12.958 13.3605 14.1313 12.1872 14.1313 10.7398C14.1313 9.29241 12.958 8.11908 11.5106 8.11908C10.0632 8.11908 8.88989 9.29241 8.88989 10.7398C8.88989 12.1872 10.0632 13.3605 11.5106 13.3605Z" stroke="#FFF9EF" stroke-linecap="round" stroke-linejoin="round"/>
<path d="M16.1696 18.6019C15.7287 17.7464 15.0607 17.0287 14.2388 16.5277C13.417 16.0267 12.4731 15.7617 11.5106 15.7617C10.5481 15.7617 9.60418 16.0267 8.78235 16.5277C7.96052 17.0287 7.29251 17.7464 6.85156 18.6019" stroke="#FFF9EF" stroke-linecap="round" stroke-linejoin="round"/>
<path d="M17.3343 15.1775C18.1609 14.0994 18.6693 12.8116 18.802 11.4596C18.9347 10.1076 18.6865 8.74543 18.0854 7.52716C17.4844 6.3089 16.5544 5.28313 15.4007 4.56587C14.247 3.84861 12.9156 3.46849 11.5571 3.46849C10.1986 3.46849 8.86722 3.84861 7.71352 4.56587C6.55982 5.28313 5.62983 6.3089 5.02874 7.52716C4.42765 8.74543 4.17944 10.1076 4.31218 11.4596C4.44493 12.8116 4.95333 14.0994 5.77989 15.1775" stroke="#FFF9EF" stroke-linecap="round" stroke-linejoin="round"/>
</g>
<defs>
<clipPath id="clip0_61_1221">
<rect width="16.3066" height="16.3066" fill="white" transform="translate(3.35718 2.87766)"/>
</clipPath>
</defs>
</svg>
