<svg width="605" height="577" viewBox="0 0 605 577" fill="none" xmlns="http://www.w3.org/2000/svg">
<path d="M215.899 289.982C207.926 289.982 201.333 288.909 196.119 286.762C190.983 284.616 187.149 281.779 184.619 278.252C182.166 274.649 180.939 270.816 180.939 266.752C180.939 262.842 182.051 258.932 184.274 255.022C186.498 251.112 189.718 247.586 193.934 244.442C198.151 241.222 203.288 238.731 209.344 236.967C210.878 236.507 212.718 236.086 214.864 235.702C217.088 235.319 219.119 235.089 220.959 235.012C218.813 234.246 216.628 233.172 214.404 231.792C212.181 230.412 210.341 228.764 208.884 226.847C207.504 224.931 206.891 222.861 207.044 220.637C207.351 217.111 208.578 213.891 210.724 210.977C212.948 207.987 215.784 205.304 219.234 202.927C222.684 200.551 226.479 198.557 230.619 196.947C234.759 195.337 238.938 194.111 243.154 193.267C247.448 192.347 251.473 191.887 255.229 191.887C256.073 191.887 256.878 191.926 257.644 192.002C258.411 192.002 259.139 192.041 259.829 192.117C266.039 192.807 270.563 194.302 273.399 196.602C276.236 198.826 277.654 201.356 277.654 204.192C277.654 207.489 275.853 210.747 272.249 213.967C268.723 217.187 263.816 219.487 257.529 220.867C256.303 221.097 255.344 221.212 254.654 221.212C253.504 221.212 252.929 220.982 252.929 220.522C252.929 220.292 253.274 219.947 253.964 219.487C254.731 219.027 255.766 218.759 257.069 218.682C259.369 218.452 261.554 217.532 263.624 215.922C265.771 214.312 267.496 212.396 268.799 210.172C270.179 207.872 270.869 205.687 270.869 203.617C270.869 201.471 269.988 199.592 268.224 197.982C266.538 196.296 263.586 195.261 259.369 194.877C258.756 194.801 258.104 194.762 257.414 194.762C256.801 194.686 256.149 194.647 255.459 194.647C250.859 194.647 246.221 195.299 241.544 196.602C236.868 197.906 232.574 199.746 228.664 202.122C224.754 204.499 221.611 207.221 219.234 210.287C216.858 213.354 215.669 216.689 215.669 220.292C215.669 222.822 216.283 224.854 217.509 226.387C218.813 227.921 220.423 229.109 222.339 229.952C224.333 230.796 226.403 231.486 228.549 232.022C230.696 232.559 232.689 233.057 234.529 233.517C236.446 233.977 237.941 234.552 239.014 235.242C240.088 235.932 240.471 236.929 240.164 238.232C239.858 239.076 239.168 239.651 238.094 239.957C237.021 240.187 235.603 240.302 233.839 240.302C232.613 240.302 231.233 240.302 229.699 240.302C228.243 240.226 226.671 240.187 224.984 240.187C222.608 240.187 220.116 240.302 217.509 240.532C214.979 240.686 212.373 241.146 209.689 241.912C205.626 243.062 202.023 245.017 198.879 247.777C195.813 250.461 193.398 253.566 191.634 257.092C189.948 260.542 189.104 264.069 189.104 267.672C189.104 271.122 190.024 274.342 191.864 277.332C193.704 280.322 196.618 282.737 200.604 284.577C204.591 286.417 209.843 287.337 216.359 287.337C222.339 287.337 228.128 286.571 233.724 285.037C239.321 283.504 244.496 281.549 249.249 279.172C254.003 276.719 258.066 274.189 261.439 271.582C264.199 269.359 266.423 267.097 268.109 264.797C269.873 262.497 270.754 260.504 270.754 258.817C270.754 256.977 269.719 255.827 267.649 255.367C265.963 254.907 265.119 254.447 265.119 253.987C265.119 253.527 265.733 253.297 266.959 253.297C267.419 253.297 267.918 253.336 268.454 253.412C268.991 253.489 269.528 253.681 270.064 253.987C273.514 255.674 275.239 258.051 275.239 261.117C275.239 265.487 272.134 270.087 265.924 274.917C262.168 277.907 257.568 280.552 252.124 282.852C246.758 285.076 240.931 286.801 234.644 288.027C228.434 289.331 222.186 289.982 215.899 289.982ZM292.758 283.657C291.301 283.657 289.845 283.082 288.388 281.932C286.931 280.706 286.203 278.751 286.203 276.067C286.203 273.997 286.701 271.621 287.698 268.937C288.618 266.331 289.845 263.801 291.378 261.347C292.988 258.894 294.138 256.901 294.828 255.367C295.058 254.754 295.173 254.217 295.173 253.757C295.173 252.377 294.291 251.381 292.528 250.767C290.841 250.154 288.618 249.809 285.858 249.732L284.478 253.527C283.635 255.981 282.446 258.856 280.913 262.152C279.456 265.449 277.808 268.631 275.968 271.697C274.205 274.764 272.365 277.217 270.448 279.057C270.295 279.211 270.103 279.287 269.873 279.287C269.566 279.287 269.375 279.096 269.298 278.712C269.145 278.329 269.298 277.869 269.758 277.332C272.748 273.346 275.431 268.937 277.808 264.107C280.185 259.201 282.178 254.217 283.788 249.157C285.475 244.097 286.701 239.421 287.468 235.127C287.698 233.901 288.12 233.019 288.733 232.482C289.346 231.869 289.998 231.562 290.688 231.562C291.685 231.562 292.605 232.061 293.448 233.057C294.291 233.977 294.713 235.319 294.713 237.082C294.713 237.389 294.675 237.734 294.598 238.117C294.598 238.501 294.56 238.884 294.483 239.267C294.176 240.877 293.256 242.411 291.723 243.867C290.266 245.247 289.078 246.282 288.158 246.972C288.925 247.049 289.73 247.126 290.573 247.202C291.416 247.202 292.336 247.202 293.333 247.202C296.936 247.202 300.501 246.972 304.028 246.512C304.181 246.972 304.258 247.317 304.258 247.547C304.258 248.544 303.951 249.809 303.338 251.342C302.801 252.876 302.226 254.256 301.613 255.482C301.306 256.172 300.693 257.437 299.773 259.277C298.853 261.041 297.856 263.072 296.783 265.372C295.71 267.596 294.79 269.819 294.023 272.042C293.333 274.189 292.988 276.029 292.988 277.562C292.988 279.556 293.755 280.552 295.288 280.552C296.438 280.552 297.703 279.824 299.083 278.367C300.463 276.834 301.805 274.994 303.108 272.847C304.488 270.624 305.715 268.477 306.788 266.407C307.938 264.261 308.82 262.574 309.433 261.347C309.74 260.581 310.161 260.197 310.698 260.197C311.005 260.197 311.158 260.466 311.158 261.002C311.158 261.309 311.043 261.769 310.813 262.382C309.97 264.146 308.973 266.139 307.823 268.362C306.673 270.586 305.37 272.771 303.913 274.917C302.533 277.064 301 278.942 299.313 280.552C297.703 282.086 295.94 283.082 294.023 283.542C293.793 283.619 293.371 283.657 292.758 283.657ZM314.808 283.887C311.588 283.887 309.403 283.044 308.253 281.357C307.103 279.594 306.528 277.524 306.528 275.147C306.528 272.694 306.873 270.164 307.563 267.557C308.253 264.951 308.867 262.766 309.403 261.002C310.63 256.709 312.163 252.147 314.003 247.317C315.92 242.411 317.99 237.619 320.213 232.942C322.513 228.189 324.775 223.934 326.998 220.177C328.762 217.187 330.64 214.964 332.633 213.507C334.703 211.974 336.505 211.207 338.038 211.207C339.265 211.207 340.223 211.667 340.913 212.587C341.68 213.431 342.063 214.734 342.063 216.497C342.063 217.724 341.833 219.181 341.373 220.867C340.99 222.554 340.3 224.471 339.303 226.617C336.62 232.597 333.4 238.577 329.643 244.557C325.963 250.537 321.287 256.134 315.613 261.347C315.307 262.344 314.885 263.532 314.348 264.912C313.888 266.216 313.467 267.557 313.083 268.937C312.623 271.007 312.393 272.771 312.393 274.227C312.393 276.604 312.853 278.406 313.773 279.632C314.77 280.782 315.958 281.357 317.338 281.357C318.565 281.357 319.868 280.936 321.248 280.092C322.628 279.172 323.932 277.869 325.158 276.182C326.998 273.499 328.647 270.777 330.103 268.017C331.637 265.181 332.787 262.996 333.553 261.462C334.013 260.619 334.512 260.197 335.048 260.197C335.432 260.197 335.623 260.427 335.623 260.887C335.623 261.271 335.508 261.692 335.278 262.152C334.588 263.686 333.668 265.679 332.518 268.132C331.445 270.509 330.065 272.924 328.378 275.377C326.768 277.754 324.813 279.786 322.513 281.472C320.29 283.082 317.722 283.887 314.808 283.887ZM316.533 257.667C319.293 254.831 321.977 251.572 324.583 247.892C327.19 244.136 329.605 240.264 331.828 236.277C334.128 232.214 336.045 228.381 337.578 224.777C338.115 223.627 338.537 222.362 338.843 220.982C339.227 219.602 339.418 218.452 339.418 217.532C339.418 216.459 339.15 215.922 338.613 215.922C338.307 215.922 337.847 216.229 337.233 216.842C336.62 217.379 335.815 218.337 334.818 219.717C333.362 221.634 331.752 224.241 329.988 227.537C328.302 230.834 326.577 234.361 324.813 238.117C323.05 241.874 321.44 245.516 319.983 249.042C318.527 252.492 317.377 255.367 316.533 257.667ZM358.381 283.887C357.537 283.964 356.579 283.772 355.506 283.312C354.432 282.852 353.474 282.009 352.631 280.782C351.864 279.556 351.481 277.831 351.481 275.607C351.481 273.767 351.826 271.544 352.516 268.937C351.596 270.394 350.407 272.196 348.951 274.342C347.494 276.412 345.922 278.252 344.236 279.862C342.779 281.242 341.399 282.239 340.096 282.852C338.792 283.466 337.604 283.772 336.531 283.772C334.537 283.772 332.927 282.891 331.701 281.127C330.474 279.287 329.861 276.911 329.861 273.997C329.861 270.931 330.627 267.442 332.161 263.532C333.694 259.622 336.186 255.559 339.636 251.342C341.859 248.659 344.542 246.512 347.686 244.902C350.906 243.216 354.049 242.372 357.116 242.372C358.879 242.372 360.566 242.679 362.176 243.292C363.786 243.829 365.204 244.749 366.431 246.052C366.967 246.589 367.236 247.202 367.236 247.892C367.236 248.352 367.044 248.736 366.661 249.042C366.277 249.349 365.779 249.426 365.166 249.272C364.322 246.589 362.521 245.247 359.761 245.247C358.457 245.247 356.962 245.669 355.276 246.512C352.669 247.892 349.947 250.154 347.111 253.297C344.351 256.441 341.936 259.699 339.866 263.072C339.559 263.532 339.061 264.414 338.371 265.717C337.757 267.021 337.144 268.477 336.531 270.087C335.917 271.697 335.496 273.269 335.266 274.802C335.189 275.262 335.151 275.607 335.151 275.837C335.151 275.991 335.151 276.259 335.151 276.642C335.151 279.172 336.109 280.437 338.026 280.437C340.326 280.437 342.932 278.751 345.846 275.377C347.839 272.924 349.641 270.356 351.251 267.672C352.861 264.989 354.509 262.114 356.196 259.047C357.346 256.977 358.419 255.252 359.416 253.872C360.412 252.492 361.831 251.802 363.671 251.802C364.514 251.802 365.357 251.917 366.201 252.147C367.044 252.377 367.926 252.416 368.846 252.262C368.232 252.876 367.389 254.026 366.316 255.712C365.319 257.399 364.246 259.316 363.096 261.462C361.946 263.609 360.911 265.794 359.991 268.017C359.071 270.241 358.419 272.157 358.036 273.767C357.959 274.227 357.844 274.879 357.691 275.722C357.614 276.566 357.576 277.179 357.576 277.562C357.576 279.709 358.189 280.782 359.416 280.782C360.642 280.782 361.946 280.054 363.326 278.597C364.782 277.141 366.201 275.339 367.581 273.192C368.961 271.046 370.226 268.899 371.376 266.752C372.526 264.529 373.446 262.727 374.136 261.347C374.442 260.581 374.902 260.197 375.516 260.197C375.899 260.197 376.091 260.466 376.091 261.002C376.091 261.232 375.976 261.654 375.746 262.267C374.826 264.184 373.714 266.369 372.411 268.822C371.107 271.199 369.689 273.537 368.156 275.837C366.622 278.061 365.012 279.939 363.326 281.472C361.716 282.929 360.067 283.734 358.381 283.887ZM363.046 284.462C365.806 278.866 368.451 273.346 370.981 267.902C373.587 262.382 376.232 257.131 378.916 252.147C380.449 249.387 381.714 247.471 382.711 246.397C383.784 245.247 385.202 244.672 386.966 244.672C387.579 244.672 388.231 244.787 388.921 245.017C389.611 245.171 390.301 245.247 390.991 245.247C391.451 245.247 391.796 245.209 392.026 245.132C390.952 245.746 389.572 247.279 387.886 249.732C386.199 252.109 384.474 254.869 382.711 258.012C380.947 261.156 379.376 264.107 377.996 266.867C379.452 265.104 380.947 263.341 382.481 261.577C384.091 259.814 385.854 258.127 387.771 256.517C389.611 254.907 391.796 253.259 394.326 251.572C396.932 249.809 399.462 248.352 401.916 247.202C404.369 246.052 406.324 245.477 407.781 245.477C408.317 245.477 408.701 245.516 408.931 245.592C408.931 245.592 408.509 246.359 407.666 247.892C406.822 249.349 405.749 251.304 404.446 253.757C403.219 256.134 401.954 258.702 400.651 261.462C399.347 264.146 398.159 266.752 397.086 269.282C396.089 271.736 395.437 273.806 395.131 275.492C394.901 276.489 394.786 277.409 394.786 278.252C394.786 279.479 395.016 280.284 395.476 280.667C395.936 281.051 396.434 281.242 396.971 281.242C398.427 281.242 399.961 280.476 401.571 278.942C403.181 277.332 404.714 275.377 406.171 273.077C407.704 270.777 409.046 268.554 410.196 266.407C411.422 264.184 412.304 262.497 412.841 261.347C413.147 260.734 413.377 260.389 413.531 260.312C413.684 260.159 413.914 260.082 414.221 260.082C414.681 260.082 414.911 260.389 414.911 261.002C414.911 261.386 414.796 261.807 414.566 262.267C413.646 264.031 412.534 266.139 411.231 268.592C410.004 271.046 408.586 273.461 406.976 275.837C405.366 278.137 403.602 280.092 401.686 281.702C399.769 283.236 397.699 284.002 395.476 284.002C393.942 284.002 392.332 283.466 390.646 282.392C389.036 281.319 388.231 279.326 388.231 276.412C388.231 275.569 388.307 274.687 388.461 273.767C388.614 272.771 388.882 271.697 389.266 270.547C389.879 269.014 390.607 267.366 391.451 265.602C392.294 263.839 393.674 261.424 395.591 258.357C396.127 257.514 396.434 256.862 396.511 256.402C396.664 255.942 396.741 255.559 396.741 255.252C396.741 254.332 396.319 253.872 395.476 253.872C394.786 253.872 393.751 254.256 392.371 255.022C391.067 255.789 389.419 257.131 387.426 259.047C385.509 260.887 383.209 263.494 380.526 266.867C377.919 270.241 374.891 275.224 371.441 281.817C370.904 282.814 370.291 283.351 369.601 283.427C368.987 283.504 368.106 283.581 366.956 283.657C366.189 283.734 365.461 283.772 364.771 283.772C364.081 283.849 363.506 284.079 363.046 284.462ZM404.783 320.227C397.5 320.227 393.858 317.237 393.858 311.257C393.858 308.421 394.855 305.891 396.848 303.667C398.842 301.444 401.218 299.527 403.978 297.917C407.812 295.617 411.53 293.777 415.133 292.397C418.737 291.017 422.148 289.791 425.368 288.717C428.665 287.721 431.77 286.609 434.683 285.382C436.063 281.319 436.983 277.064 437.443 272.617C437.673 270.317 437.788 268.324 437.788 266.637C437.788 264.874 437.673 263.724 437.443 263.187C436.6 264.797 435.488 266.752 434.108 269.052C432.728 271.352 431.157 273.614 429.393 275.837C427.63 277.984 425.713 279.786 423.643 281.242C421.65 282.699 419.58 283.427 417.433 283.427C416.667 283.427 415.938 283.312 415.248 283.082C413.102 282.162 411.53 280.859 410.533 279.172C409.613 277.486 409.153 275.569 409.153 273.422C409.153 269.972 410.15 266.254 412.143 262.267C414.137 258.281 416.513 254.639 419.273 251.342C421.497 248.659 424.103 246.512 427.093 244.902C430.083 243.292 433.112 242.487 436.178 242.487C439.705 242.487 443.002 243.676 446.068 246.052C447.218 246.972 447.793 247.969 447.793 249.042C447.793 250.192 447.333 250.767 446.413 250.767C445.647 250.767 445.11 250.269 444.803 249.272C443.73 246.436 442.005 245.017 439.628 245.017C437.712 245.017 435.527 245.861 433.073 247.547C430.62 249.157 428.32 251.189 426.173 253.642C424.333 255.712 422.532 258.089 420.768 260.772C419.082 263.456 417.663 266.101 416.513 268.707C415.44 271.314 414.903 273.576 414.903 275.492C414.903 276.796 415.21 277.907 415.823 278.827C416.437 279.747 417.395 280.207 418.698 280.207C420.462 280.207 422.302 279.364 424.218 277.677C426.212 275.991 428.09 273.921 429.853 271.467C431.693 269.014 433.265 266.522 434.568 263.992C435.948 261.462 436.907 259.354 437.443 257.667C437.98 255.904 438.708 254.831 439.628 254.447C440.548 253.987 441.468 253.757 442.388 253.757C443.308 253.757 444.075 253.527 444.688 253.067C444.995 254.754 445.187 256.479 445.263 258.242C445.417 259.929 445.493 261.654 445.493 263.417C445.493 269.321 444.727 275.262 443.193 281.242C444.573 280.169 445.992 279.019 447.448 277.792C448.982 276.489 450.285 275.109 451.358 273.652C453.275 271.046 454.693 268.669 455.613 266.522C456.61 264.299 457.377 262.574 457.913 261.347C458.373 260.581 458.872 260.197 459.408 260.197C459.868 260.197 460.098 260.427 460.098 260.887C460.098 261.271 459.945 261.731 459.638 262.267C457.722 266.331 455.958 269.819 454.348 272.732C452.738 275.569 450.975 277.984 449.058 279.977C447.142 281.894 444.765 283.542 441.928 284.922C440.702 288.602 438.862 292.474 436.408 296.537C433.955 300.601 431.08 304.434 427.783 308.037C424.487 311.641 420.883 314.554 416.973 316.777C413.063 319.077 409 320.227 404.783 320.227ZM402.023 317.927C403.71 317.927 405.473 317.544 407.313 316.777C409.23 316.087 411.032 315.244 412.718 314.247C414.405 313.251 415.708 312.407 416.628 311.717C418.392 310.337 420.193 308.612 422.033 306.542C423.873 304.472 425.483 302.479 426.863 300.562C428.167 298.722 429.393 296.767 430.543 294.697C431.77 292.704 432.805 290.711 433.648 288.717C433.035 288.947 432.268 289.216 431.348 289.522C430.505 289.829 429.892 290.059 429.508 290.212C426.978 291.056 424.18 292.014 421.113 293.087C418.123 294.237 415.133 295.464 412.143 296.767C409.153 298.147 406.432 299.642 403.978 301.252C401.832 302.709 400.068 304.626 398.688 307.002C397.232 309.379 396.503 311.449 396.503 313.212C396.503 314.516 396.963 315.627 397.883 316.547C398.727 317.467 400.107 317.927 402.023 317.927Z" fill="white"/>
<ellipse cx="146.484" cy="185.067" rx="5" ry="5.5" transform="rotate(29.9262 146.484 185.067)" fill="white"/>
<ellipse cx="133.91" cy="238.983" rx="5" ry="5.5" transform="rotate(29.9262 133.91 238.983)" fill="white"/>
<path fill-rule="evenodd" clip-rule="evenodd" d="M259.351 97.0417C224.882 110.622 194.606 135.544 174.687 170.148C127.986 251.279 155.896 354.908 237.027 401.609C318.158 448.311 421.786 420.401 468.488 339.27C489.808 302.233 495.578 260.508 487.835 221.65L477.188 224.518C484.215 260.648 478.759 299.378 458.955 333.782C415.284 409.648 318.38 435.747 242.514 392.076C166.649 348.405 140.55 251.502 184.221 175.636C202.624 143.666 230.48 120.534 262.231 107.736L259.351 97.0417Z" fill="white"/>
<path fill-rule="evenodd" clip-rule="evenodd" d="M257.258 89.2698C220.812 103.415 188.776 129.637 167.754 166.157C118.848 251.117 148.076 359.637 233.036 408.543C317.996 457.448 426.516 428.221 475.422 343.261C497.843 304.309 503.842 260.406 495.576 219.565L491.706 220.608C499.71 260.457 493.826 303.271 471.955 341.265C424.151 424.311 318.077 452.88 235.032 405.076C151.986 357.272 123.417 251.198 171.221 168.152C191.691 132.591 222.847 107.018 258.304 93.1551L257.258 89.2698Z" fill="white"/>
<path fill-rule="evenodd" clip-rule="evenodd" d="M250.67 64.8099C208.171 80.6703 170.735 110.867 146.337 153.252C90.6804 249.939 123.942 373.437 220.629 429.094C317.316 484.75 440.815 451.488 496.471 354.801C522.141 310.206 528.896 259.908 519.236 213.193L515.367 214.235C524.764 259.959 518.123 309.168 493.004 352.805C438.45 447.578 317.397 480.181 222.625 425.627C127.852 371.073 95.2492 250.02 149.803 155.247C173.65 113.82 210.204 84.2717 251.715 68.6899L250.67 64.8099Z" fill="white"/>
<path fill-rule="evenodd" clip-rule="evenodd" d="M242.108 33.0213C191.331 51.1983 146.502 86.8176 117.487 137.222C52.6009 249.944 91.379 393.923 204.101 458.81C316.822 523.696 460.802 484.918 525.688 372.196C556.101 319.363 563.74 259.663 551.666 204.459L522.66 212.271C532.761 260.048 525.968 311.577 499.688 357.23C443.068 455.592 317.429 489.43 219.067 432.81C120.705 376.189 86.8667 250.551 143.487 152.188C168.368 108.966 206.575 78.2019 249.939 62.0981L242.108 33.0213Z" fill="white"/>
</svg>
